<svg xmlns="http://www.w3.org/2000/svg" xmlns:xlink="http://www.w3.org/1999/xlink" width="186" height="19" viewBox="0 0 186 19">
  <defs>
    <clipPath id="clip-path">
      <text id="うちのこメーカー" transform="translate(105 22)" font-size="19" font-family="TA-kokoro_no3" letter-spacing="0.25em" fill="none"><tspan x="-92.625" y="0">うちのこメーカー</tspan></text>
    </clipPath>
  </defs>
  <g id="ttl" transform="translate(-637.146 -382.179)">
    <g id="グループ_19" data-name="グループ 19" transform="translate(625.146 377.179)" clip-path="url(#clip-path)">
      <g id="グループ_18" data-name="グループ 18" transform="translate(-24.385 -24.55)" opacity="0.638">
        <path id="パス_14" data-name="パス 14" d="M775.991,390.249c1.871-7,7.672-11.639,13.763-14.662-9.719-12.359-28.438-19.945-49.506-17.22a17.8,17.8,0,0,0-14.774,12.164,11.655,11.655,0,0,0-.489,2.025c4.26,3.063,7.355,6.92,8.473,11.506a17.016,17.016,0,0,1,.448,3.1c6.144.17,18.932,3.685,21.772,9.095,5.546,10.548,3.451,20.294-2.83,29.167,6.022,5.566,14.118,9.956,21.805,8.674,6.5-1.081,12.054-6,16.015-12.7C780,413.39,773.192,400.716,775.991,390.249Z" transform="translate(-568.327 -353.189)" fill="#8dbe62"/>
        <path id="パス_15" data-name="パス 15" d="M675.883,378.431c.035-.132.083-.256.121-.385a36.806,36.806,0,0,0-10.043-.292c-1.622,6.358-7.935,12-15.241,16.857-1.562,1.04-8.006,5.307-13.163,5.114-3.2,10.677-1.789,24.11,5.4,36.543a14.674,14.674,0,0,0,13.951,7.377,9.679,9.679,0,0,0,5.206-1.9c4.08-3.166,3.854-8.38,10.076-16.752,4.768-6.423,7.922-5.032,12.43-10.126a30.719,30.719,0,0,0,5.322-9.389C680.042,399.025,673.409,387.684,675.883,378.431Z" transform="translate(-583.403 -352.16)" fill="#8dbe62"/>
        <path id="パス_16" data-name="パス 16" d="M717.516,397.785c4.749-9.21,23.723-12.173,31.654-12.094.1,0,.213.01.314.013a17.017,17.017,0,0,0-.448-3.1c-1.118-4.586-4.213-8.443-8.473-11.506-9.306-6.689-24.183-9.579-36.2-7.957-1.912.257-26.187,3.852-30.818,19.438-.047.157-.1.308-.147.467-3,11.221,5.044,24.976,17.046,32.8a37.234,37.234,0,0,0,17.016,6.127,32.206,32.206,0,0,0,5.506-.03,18.3,18.3,0,0,0,3.716-6.856C719.354,406.26,714.74,403.167,717.516,397.785Z" transform="translate(-583.905 -351.731)" fill="#e36083"/>
        <path id="パス_17" data-name="パス 17" d="M634.745,388.369c1.184-3.757,3.565-3.889,4.824-8.039,1.4-4.624-1.015-6.244.438-9.062,1.108-2.15,3.7-3.646,6.592-4.645-6.755-7.956-21.883-11.636-33.68-10.043-1.593.214-22.01,3.229-25.533,16.414-3.533,13.211,11.491,30.691,28.086,32.1,7.434.629,14.714-2.013,20.673-6.275C634.109,396.135,633.711,391.659,634.745,388.369Z" transform="translate(-586.866 -353.665)" fill="#d6ba67"/>
        <path id="パス_18" data-name="パス 18" d="M651.063,395.54c7.306-4.854,13.619-10.5,15.241-16.857a13,13,0,0,0-1.272-9.56c-1.51-2.874-8.409-4.736-11.565-4.764a32.933,32.933,0,0,0-9.987,1.689c-2.895,1-5.484,2.5-6.592,4.645-1.453,2.819.963,4.439-.438,9.062-1.259,4.15-3.64,4.282-4.824,8.039-1.034,3.29-.636,7.766,1.4,10.448a6.22,6.22,0,0,0,1.23,1.245,6.36,6.36,0,0,0,3.645,1.167C643.058,400.847,649.5,396.58,651.063,395.54Z" transform="translate(-583.746 -353.091)" fill="#1c938a"/>
        <path id="パス_19" data-name="パス 19" d="M763.524,389.516c-2.839-5.41-15.628-8.925-21.772-9.095-.1,0-.217-.012-.314-.013-7.931-.079-26.905,2.884-31.654,12.094-2.776,5.383,1.838,8.475-.837,17.3a18.3,18.3,0,0,1-3.716,6.856c-2.021,2.424-4.16,4.253-5.493,8.492-2.325,7.393-.879,17.94,5.023,22.331,9.8,7.281,28.336-5.039,32.093-7.53,9.615-6.389,18.335-13.5,23.84-21.272C766.975,409.81,769.071,400.064,763.524,389.516Z" transform="translate(-576.174 -346.449)" fill="#1c938a"/>
        <path id="パス_20" data-name="パス 20" d="M840.057,387.029c-3.56-14.6-27.152-21.827-44.677-19.463a60.831,60.831,0,0,0-17.2,5.244c-6.092,3.023-11.893,7.659-13.764,14.662-2.8,10.467,4.009,23.141,14.676,31.148a38.149,38.149,0,0,0,19.385,7.778C821.9,428.382,844.1,403.638,840.057,387.029Z" transform="translate(-556.752 -350.411)" fill="#d6ba67"/>
      </g>
    </g>
  </g>
</svg>
